<svg xmlns="http://www.w3.org/2000/svg" viewBox="0 0 294.46 337.51"><defs><style>.cls-1{fill:#939b9e;}</style></defs><g id="Layer_2" data-name="Layer 2"><g id="Layer_1-2" data-name="Layer 1"><path class="cls-1" d="M92.53,337.51q-13.82,0-28.75-13.33-11.25-9.8-25.39-29.4a189.58,189.58,0,0,1-26.82-51.4Q0,211.08,0,182.49q0-33.09,15.26-57.83a88.93,88.93,0,0,1,75-42.25q14.46,0,40,9.32,14,4.81,19.44,4.82,6.59,0,29.72-8.36,18.47-6.9,33.41-6.9c2.15,0,4.42,0,6.83.16s6.24.53,11.49,1.28a80.45,80.45,0,0,1,17.27,4.74,103.71,103.71,0,0,1,19.35,10.12A63.75,63.75,0,0,1,285.3,115q-2.08,0-11.08,7.23-27.95,24.58-28,57.19,0,31.65,24.58,53a72.47,72.47,0,0,0,23.61,14.78q0,2.25-5.46,15.75a155.63,155.63,0,0,1-18.79,32.93Q257,314.38,245.79,323.86q-15.58,13.33-31.49,13.33-12.69,0-28.59-6.82t-30.85-6.83a66.58,66.58,0,0,0-18,2.09q-7.4,2.08-14,4.49L110,334.86a48,48,0,0,1-14.94,2.65Zm54.62-259.6a52.54,52.54,0,0,1-.64-8.35q0-22.81,19.92-44.5Q189.56,1.45,219,0l.48,6.91q0,25-18.63,46.75a73.08,73.08,0,0,1-23.62,17.59,64.17,64.17,0,0,1-27.79,6.66Z"/></g></g></svg>