<svg xmlns="http://www.w3.org/2000/svg" viewBox="0 0 286.59 337.67"><defs><style>.cls-1{fill:#fff;}</style></defs><g id="Layer_2" data-name="Layer 2"><g id="Layer_1-2" data-name="Layer 1"><path class="cls-1" d="M73.89,163.37l-.32,1.13a10.19,10.19,0,0,1-2.41,5,4.21,4.21,0,0,1-2.25,1.13q-1,0-1-.48a3.22,3.22,0,0,1,1-1.77,9.37,9.37,0,0,0,2.89-4.9c.43-1.87,1-2.81,1.77-2.81.54,0,.8.43.8,1.29A5.28,5.28,0,0,1,73.89,163.37Z"/><path class="cls-1" d="M171.64,24.49c.49.38.73.67.73.89a3.84,3.84,0,0,1-2.17,1.36,13.59,13.59,0,0,1-2.65.24h-1.61l-3,2A11.3,11.3,0,0,0,161,30.52q-.4.48-.72.48c-.22,0-.51-.19-.88-.56s-.57-.67-.57-.89a6.87,6.87,0,0,1,1.29-2.33,5.83,5.83,0,0,0,1.28-3l-.32-1.93c0-2,.86-3.05,2.57-3.05,1.07,0,2.63.91,4.66,2.73a3.48,3.48,0,0,0,1.45,1.29A16.43,16.43,0,0,1,171.64,24.49Z"/><path class="cls-1" d="M195.5,110.36a4.93,4.93,0,0,1-.88,3,2.63,2.63,0,0,1-2.17,1.2q-3.06,0-7.39-4.65-2.73-4.18-2.73-6.43a5,5,0,0,1,.8-2.73l1.13-.64a14.48,14.48,0,0,1,1.76,2.57,8.73,8.73,0,0,0,5.87,3.61C194.3,106.64,195.5,108,195.5,110.36Z"/><path class="cls-1" d="M225.7,190.12c.11.37.4,1.63.89,3.77a25.59,25.59,0,0,1,.72,4.18c0,.64,0,1.58.08,2.81s.08,2.12.08,2.65c0,1.18,0,2.17-.08,3a34.85,34.85,0,0,1-.56,3.7q-.48,2.49-1.13,4.9t-1.28,5.46q10.28,4.5,10.28,7.55-5.46-4.5-14.78-4.5a23.27,23.27,0,0,0-4.26.38l-.26-1.37q5.4-1.55,7.09-7.68a46.73,46.73,0,0,0,1.6-12.53q0-17.19-11.88-39.84-6.11-12-10.93-15.59,7.08,3.54,13.9,14.06t8.75,19.36q.16,1.13.89,5.14C225.3,188.22,225.59,189.74,225.7,190.12Z"/><path class="cls-1" d="M123.53,77.59q-5.62,0-5.62,2.41c0,1,.26,1.44.8,1.44H119c.43,0,.91-.64,1.45-1.93A3,3,0,0,1,123.53,77.59Zm6.91-3.7q6.42,0,8.67,1.93.33,0,.33-2.73a34.28,34.28,0,0,1-.65-6.43Q138.79,49,156.14,48a14.81,14.81,0,0,1,9.16,4.17q7.06,5.79,7.07,22,0,5.79-2.25,6.67a11.14,11.14,0,0,1-4,.88c-1.82,0-2.73-1-2.73-2.89a9,9,0,0,1,1.13-3.05,10.53,10.53,0,0,0,.64-3.86,21.08,21.08,0,0,0-1.45-7.06q-2.56-5.46-8.35-5.47-5.94,0-8,4.34A18.82,18.82,0,0,0,145.22,72c0,4.4.85,6.7,2.57,6.91q1.13,0,6.67,3t8.43,3.46q7.23,1.44,7.87,3.69a14.36,14.36,0,0,1,.64,3.86,23.76,23.76,0,0,1-1.12,6.42,30.88,30.88,0,0,0-1.29,8q0,7.23,7.72,15.9,5.94,7.23,11.24,30.2l1.45,1.13q7.71,7.22,12.53,28.91a84.26,84.26,0,0,1,2.33,20.24q.08,11.56,1.36,15.5c.86,2.63,2.78,3.94,5.78,3.94a14.64,14.64,0,0,0,4-.51l.26,1.37a24.65,24.65,0,0,0-6,1.87,11,11,0,0,0-6.43,10q-6.42,0-9.48,3.38-4.17,5.13-4.25,9.71c-.06,3.06-.08,4.74-.08,5.06a115.82,115.82,0,0,0,1.28,16.71,82.91,82.91,0,0,1,1.45,12.37q0,5-2.73,18.64-2.1,10.92-2.57,14.45c-2.79-.1-4.29-.72-4.5-1.84A14.39,14.39,0,0,1,182,312a18.79,18.79,0,0,1,1.12-5.79q4.5-13.33,4.5-20.08,0-7.55-2.57-7.55-2.09,0-5.78,6.11Q170.93,298.15,146,301.2c-3.53.33-6.75.49-9.64.49q-15.09,0-21.84-7.55a5.57,5.57,0,0,0-2.25-.49,4.41,4.41,0,0,0-3.86,2.25,2.9,2.9,0,0,0,.56.89c.38.48,1,1.23,1.85,2.25a18.43,18.43,0,0,1,2.09,3q3.38,5.78,3.37,10a7.94,7.94,0,0,1-4.82,7.55,57.6,57.6,0,0,0-1.2-13.5,30.68,30.68,0,0,0-5.3-10.2q-4.1-5.54-5.71-8.27,5.79-.65,8.44-4.26a12.27,12.27,0,0,0,2.65-7.31q0-5.3-3-8-1.94-1.92-17.67-14.46T70,236.79c-.22-.75-1.66-2.07-4.34-3.94s-4.34-3.67-5-5.38q-4.66-10.6-4.66-19.12,0-8.35,3.53-13.17h.33c.21,0,.32.38.32,1.12v2.25a30.89,30.89,0,0,0-1.13,8q0,13.66,6.75,20.41,1.94,1.92,3.21,1.92c1,0,1.72-.9,2.25-2.73q1.13-1.12,1.13-8.19v-8.51a57.92,57.92,0,0,1,.32-7.39q1.44-10.6,8.91-26.43t11.65-16.95a16.54,16.54,0,0,1-2.41-8.35,23,23,0,0,1,.32-3.7,33.26,33.26,0,0,1,4.18-11.08q8.35-13.65,8.35-21.05c0-1.39.16-2.08.49-2.08.74,0,2.14,1.44,4.17,4.33q8,11.73,12,14a10.66,10.66,0,0,0,4.18.8q5.29,0,17.51-9.15a65.94,65.94,0,0,1,12.53-8l4-2.24a12.13,12.13,0,0,0,3.3-1.61c1.33-.86,2-1.71,2-2.57-.42-1.5-1.28-2.25-2.57-2.25q-2.56,0-12.53,6.1a65,65,0,0,1-13.33,6.11,26.62,26.62,0,0,1-7.07,1.12q-7.54,0-12.21-4.17-3-2.73-3-3.54c0-.43,0-.64.16-.64l1.13.32a82.19,82.19,0,0,0,10.12.8q6.9,0,17.83-4.66,12.84-5.61,19.44-7.87,4-.8,4-3.69a1.84,1.84,0,0,0-1-1.69,3.44,3.44,0,0,0-1.61-.56A2.88,2.88,0,0,0,160.8,95a10.19,10.19,0,0,1-3.93,3.37A41.34,41.34,0,0,1,151.4,101a51.45,51.45,0,0,1-6.58,1.93c-2.73.64-4.15,1.07-4.26,1.28a61.14,61.14,0,0,1-17.83,2.89c-6.21,0-10.15-1.3-11.81-3.93a24.7,24.7,0,0,0-7.79-7.31,2.11,2.11,0,0,1-1.45-2.25c0-2,1.13-4.07,3.38-6.1,0-.22,1.17-1,3.53-2.41l.86-.53a16.85,16.85,0,0,0,4.44-3.89,30.67,30.67,0,0,1,5.79-5.38c.1-.43.26-1.82.48-4.18a16.7,16.7,0,0,0-1.93-7.31c-1.28-2.62-3.16-3.93-5.62-3.93q-7.56,0-7.55,9a13.21,13.21,0,0,0,1.68,6.75c1.13,1.93,2.06,2.89,2.82,2.89h.32c.85,0,1.28.11,1.28.32L111,80c-1,1.71-2.09,2.57-3.37,2.57-.75,0-1.64-.89-2.65-2.65a23.64,23.64,0,0,1-2.41-6.43,28.75,28.75,0,0,1-.89-6.35,26.31,26.31,0,0,1,3.38-12.2q2.89-5.31,7.55-5.31,5.3,0,8.51,6.11t3.22,15.42v1.93a2.06,2.06,0,0,0,1.92,1.12h.81A15.87,15.87,0,0,1,130.44,73.89Zm10.12,4.66a3,3,0,0,0-2.89-1.61,7.62,7.62,0,0,0-3.21,1.13h1.12a3.35,3.35,0,0,1,2.09,1,3.29,3.29,0,0,0,2.09,1h.16a1.41,1.41,0,0,0,.64-1.13Z"/><path d="M161.76,69.39a7.41,7.41,0,0,0-.88-3.77,5.69,5.69,0,0,0-2-2.17,3.94,3.94,0,0,0-1.6-.64c-1.29,0-1.93.16-1.93.48a1.29,1.29,0,0,0,.48.8q3.38,1.13,4.18,6.11v.32a2.88,2.88,0,0,0,1.44-.48Zm-6.42-10q5.78,0,8.35,5.47A21.08,21.08,0,0,1,165.14,72a10.53,10.53,0,0,1-.64,3.86,9,9,0,0,0-1.13,3.05c0,1.93.91,2.89,2.73,2.89a11.14,11.14,0,0,0,4-.88q2.25-.88,2.25-6.67,0-16.21-7.07-22A14.81,14.81,0,0,0,156.14,48q-17.34,1-17.35,18.63a34.28,34.28,0,0,0,.65,6.43q0,2.73-.33,2.73-2.25-1.93-8.67-1.93a15.87,15.87,0,0,0-3.37.32h-.81a2.06,2.06,0,0,1-1.92-1.12V71.16q0-9.31-3.22-15.42t-8.51-6.11q-4.67,0-7.55,5.31a26.31,26.31,0,0,0-3.38,12.2,28.75,28.75,0,0,0,.89,6.35A23.64,23.64,0,0,0,105,79.92c1,1.76,1.9,2.65,2.65,2.65l1.82,2-.86.53c-2.36,1.39-3.53,2.19-3.53,2.41-2.25,2-3.38,4.07-3.38,6.1a2.11,2.11,0,0,0,1.45,2.25,24.7,24.7,0,0,1,7.79,7.31c1.66,2.63,5.6,3.93,11.81,3.93a61.14,61.14,0,0,0,17.83-2.89c.11-.21,1.53-.64,4.26-1.28A51.45,51.45,0,0,0,151.4,101a41.34,41.34,0,0,0,5.47-2.65A10.19,10.19,0,0,0,160.8,95a2.88,2.88,0,0,1,2.57-1.69,3.44,3.44,0,0,1,1.61.56,1.84,1.84,0,0,1,1,1.69q0,2.9-4,3.69-6.6,2.25-19.44,7.87-10.94,4.67-17.83,4.66a82.19,82.19,0,0,1-10.12-.8l-1.13-.32c-.11,0-.16.21-.16.64s1,1.72,3,3.54Q121,119,128.51,119a26.62,26.62,0,0,0,7.07-1.12,65,65,0,0,0,13.33-6.11q10-6.1,12.53-6.1c1.29,0,2.15.75,2.57,2.25,0,.86-.67,1.71-2,2.57a12.13,12.13,0,0,1-3.3,1.61l-4,2.24a65.94,65.94,0,0,0-12.53,8q-12.21,9.15-17.51,9.15a10.66,10.66,0,0,1-4.18-.8q-4-2.25-12-14c-2-2.89-3.43-4.33-4.17-4.33-.33,0-.49.69-.49,2.08q0,7.39-8.35,21.05a33.26,33.26,0,0,0-4.18,11.08,23,23,0,0,0-.32,3.7,16.54,16.54,0,0,0,2.41,8.35q-4.18,1.13-11.65,16.95t-8.91,26.43a57.92,57.92,0,0,0-.32,7.39V218q0,7.06-1.13,8.19c-.53,1.83-1.28,2.73-2.25,2.73s-1.92-.64-3.21-1.92q-6.75-6.75-6.75-20.41a30.89,30.89,0,0,1,1.13-8V196.3c0-.74-.11-1.12-.32-1.12h-.33q-3.53,4.81-3.53,13.17,0,8.52,4.66,19.12c.64,1.71,2.3,3.51,5,5.38S69.82,236,70,236.79q3.85,4.17,19.6,16.7T107.31,268q3,2.73,3,8a12.27,12.27,0,0,1-2.65,7.31q-2.65,3.61-8.44,4.26,1.61,2.73,5.71,8.27a30.68,30.68,0,0,1,5.3,10.2,57.6,57.6,0,0,1,1.2,13.5A7.94,7.94,0,0,0,116.3,312q0-4.19-3.37-10a18.43,18.43,0,0,0-2.09-3c-.86-1-1.47-1.77-1.85-2.25a2.9,2.9,0,0,1-.56-.89,4.41,4.41,0,0,1,3.86-2.25,5.57,5.57,0,0,1,2.25.49q6.74,7.55,21.84,7.55c2.89,0,6.11-.16,9.64-.49q24.9-3,33.26-16.54,3.69-6.11,5.78-6.11,2.56,0,2.57,7.55,0,6.75-4.5,20.08A18.79,18.79,0,0,0,182,312a14.39,14.39,0,0,0,.32,2.33c.21,1.12,1.71,1.74,4.5,1.84q.48-3.52,2.57-14.45,2.73-13.67,2.73-18.64a82.91,82.91,0,0,0-1.45-12.37A115.82,115.82,0,0,1,189.4,254c0-.32,0-2,.08-5.06s1.47-6.29,4.25-9.71q3.06-3.37,9.48-3.38a11,11,0,0,1,6.43-10,24.65,24.65,0,0,1,6-1.87,23.27,23.27,0,0,1,4.26-.38q9.32,0,14.78,4.5,0-3-10.28-7.55.63-3,1.28-5.46t1.13-4.9a34.85,34.85,0,0,0,.56-3.7c.05-.8.08-1.79.08-3,0-.53,0-1.42-.08-2.65s-.08-2.17-.08-2.81a25.59,25.59,0,0,0-.72-4.18c-.49-2.14-.78-3.4-.89-3.77s-.4-1.9-.88-4.58-.78-4.39-.89-5.14Q222,171.57,215.18,161T201.28,147q4.83,3.54,10.93,15.59,11.88,22.65,11.88,39.84a46.73,46.73,0,0,1-1.6,12.53q-1.69,6.13-7.09,7.68a14.64,14.64,0,0,1-4,.51c-3,0-4.92-1.31-5.78-3.94s-1.31-7.79-1.36-15.5a84.26,84.26,0,0,0-2.33-20.24q-4.83-21.69-12.53-28.91L188,153.41q-5.3-23-11.24-30.2-7.72-8.67-7.72-15.9a30.88,30.88,0,0,1,1.29-8,23.76,23.76,0,0,0,1.12-6.42,14.36,14.36,0,0,0-.64-3.86q-.64-2.25-7.87-3.69-2.89-.48-8.43-3.46t-6.67-3c-1.72-.21-2.57-2.51-2.57-6.91a18.82,18.82,0,0,1,2.09-8.19Q149.39,59.44,155.34,59.43Zm131.25,229.4a13.65,13.65,0,0,1-.49,3.06c-.53,1.5-2.94,3.9-7.22,7.23a48.27,48.27,0,0,1-11.41,6.42L261,308.75a138.32,138.32,0,0,0-35.5,25.06q-3.85,3.87-15.58,3.86-17,0-22.33-12.21-2.58-5.15-13.33-5.3-8.2-.33-24.58-.32-27.32,0-36.31,3.85a38.11,38.11,0,0,0-10,5.31q-9,7.86-17.83,7.87-5.62,0-21.37-5.71a264,264,0,0,0-27.79-8.59L17.83,319.2q-10.29-1.93-14.06-4.42A8.34,8.34,0,0,1,0,307.31q0-3.71,2.65-10.68t2.65-9.4a32.9,32.9,0,0,0-.89-6.91q-.89-4-1.68-7.23a25.56,25.56,0,0,1-.81-6.26V264.5a6,6,0,0,1,1.61-3.78q2.57-2.25,10.68-2.49t11.65-2.49c3.75-2,6.37-4.18,7.87-6.42S36,243.8,36,239.52a28.32,28.32,0,0,1,1.12,7.23q0,8.67-7.22,12.85a22.18,22.18,0,0,1-12,3L12,262.33q-6.73,0-6.74,5.3,0,4.19,3.37,10.6a25,25,0,0,1,2.41,9.48q0,4.17-3.05,10.6-2.41,5.94-2.41,8.36,0,3.69,6.91,5.94,3.69.79,15.9,3.21l18.64,3.7Q51.56,321,61.36,324q16.4,5,23.14,5h2.41c5.46-.76,9.58-2.57,12.36-5.47a14.49,14.49,0,0,0,4.18-10.44,38.52,38.52,0,0,0-1.53-10,48.16,48.16,0,0,0-3.37-9.24c-1.23-2.41-2.49-4.73-3.77-7q-22.82-36-31.73-45.47T47.39,232a9.22,9.22,0,0,0-5.63,1.92,1.54,1.54,0,0,1-.8.33c-1.71,0-2.57-2.9-2.57-8.68q0-9.79,6.43-20.24A40.13,40.13,0,0,0,49,197.11q9.48-26.19,10.6-28.12,6.27-14.78,12.86-21.84,20.88-26.67,23.45-36.79Q93.65,89.48,93.17,52.2V49q0-14.61,4.58-25.78T117.43,3.85Q125,0,139.11,0a68.36,68.36,0,0,1,18.48,2.65,44.06,44.06,0,0,1,16.06,8Q184.57,18.15,191,33.25q5.79,13,5.79,24.42l-.16,8.19q0,44,30.68,76.63,10,11.08,18.63,31,12.21,28.44,12.21,48.19c0,1.08-.08,3-.24,5.79a20.66,20.66,0,0,1-2.09,7.95c-1.23,2.52-2.44,3.94-3.61,4.26s-2.65,1.5-4.42,3.53-3.51,4.26-5.22,6.67a21.28,21.28,0,0,1-7.55,6.26,22.22,22.22,0,0,1-10.6,2.65,26.58,26.58,0,0,1-7.07-.88c-2.15-.59-4.23-2.33-6.27-5.22a23.77,23.77,0,0,1-4.17-7.87q-3.37-5.62-6.43-5.62a12.2,12.2,0,0,0-2.81.72q-2.17.72-3.94,8.75a19,19,0,0,0-.8,5.63A44.27,44.27,0,0,0,195,267a55.71,55.71,0,0,1,2.09,16.06,154.11,154.11,0,0,1-1.61,20.56,28.78,28.78,0,0,0-.64,5.95q0,8,4,12.85a15.36,15.36,0,0,0,12.53,6.26c.33,0,2-.08,5-.24s7.07-2.38,12.21-6.66a177.85,177.85,0,0,1,16.95-12.21q5.7-3.37,19.36-8.2,18.15-5.78,18.15-12.2a12.29,12.29,0,0,0-.56-2.09q-.57-1.77-4.18-4.34a35.28,35.28,0,0,0-9.8-4.5q-6.18-1.92-9.07-8.59A31.73,31.73,0,0,1,256.55,257c0-.54.05-2.06.16-4.58a8.35,8.35,0,0,1,2.57-6,59.86,59.86,0,0,0,1.44,10.93q2.41,8.67,6.91,12.85a29.22,29.22,0,0,0,7.87,6.1q6.11,3.38,8.6,6.27A9.43,9.43,0,0,1,286.59,288.83Zm-92-175.5a4.93,4.93,0,0,0,.88-3c0-2.36-1.2-3.72-3.61-4.1a8.73,8.73,0,0,1-5.87-3.61,14.48,14.48,0,0,0-1.76-2.57l-1.13.64a5,5,0,0,0-.8,2.73q0,2.25,2.73,6.43,4.33,4.65,7.39,4.65A2.63,2.63,0,0,0,194.62,113.33ZM172.37,25.38c0-.22-.24-.51-.73-.89a16.43,16.43,0,0,0-1.84-1.2A3.48,3.48,0,0,1,168.35,22c-2-1.82-3.59-2.73-4.66-2.73-1.71,0-2.57,1-2.57,3.05l.32,1.93a5.83,5.83,0,0,1-1.28,3,6.87,6.87,0,0,0-1.29,2.33c0,.22.19.51.57.89s.66.56.88.56.45-.16.72-.48A11.3,11.3,0,0,1,163,29l3-2h1.61a13.59,13.59,0,0,0,2.65-.24A3.84,3.84,0,0,0,172.37,25.38Zm-98.48,138a5.28,5.28,0,0,0,.48-1.44c0-.86-.26-1.29-.8-1.29-.75,0-1.34.94-1.77,2.81a9.37,9.37,0,0,1-2.89,4.9,3.22,3.22,0,0,0-1,1.77q0,.48,1,.48a4.21,4.21,0,0,0,2.25-1.13,10.19,10.19,0,0,0,2.41-5Z"/><path d="M137.67,76.94a3,3,0,0,1,2.89,1.61v.32a1.41,1.41,0,0,1-.64,1.13h-.16a3.29,3.29,0,0,1-2.09-1,3.35,3.35,0,0,0-2.09-1h-1.12A7.62,7.62,0,0,1,137.67,76.94Z"/><path d="M123.53,77.59a3,3,0,0,0-3,1.92c-.54,1.29-1,1.93-1.45,1.93h-.32c-.54,0-.8-.48-.8-1.44Q117.91,77.59,123.53,77.59Z"/><path d="M113.89,80.72a16.85,16.85,0,0,1-4.44,3.89l-1.82-2c1.28,0,2.41-.86,3.37-2.57l.16-1.13c0-.21-.43-.32-1.28-.32h-.32c-.76,0-1.69-1-2.82-2.89a13.21,13.21,0,0,1-1.68-6.75q0-9,7.55-9c2.46,0,4.34,1.31,5.62,3.93a16.7,16.7,0,0,1,1.93,7.31c-.22,2.36-.38,3.75-.48,4.18A30.67,30.67,0,0,0,113.89,80.72Zm2.89-11a8.49,8.49,0,0,0-1.12-3.78c-.75-1.45-1.5-2.17-2.25-2.17s-1.28.48-1.28,1.45c.1.75.48,1.12,1.12,1.12s1.13.48,1.13,1.45v2.73c0,1.71.53,2.57,1.6,2.57C116.52,73.09,116.78,72,116.78,69.72Z"/></g></g></svg>